<svg width="185" height="288" viewBox="0 0 185 288" fill="none" xmlns="http://www.w3.org/2000/svg">
<g filter="url(#filter0_f_168_46)">
<path d="M62.4907 237.374C-18.5497 142.748 71.4177 53.2677 125.366 20.8076C156.23 71.1916 189.93 185.592 77.8197 240.119L74.7364 241.85L66.5351 265.514L57.2705 267.068L62.4907 237.374Z" fill="#787C77"/>
</g>
<path d="M75.9851 251C169.185 168.2 105.818 67.1667 62.4849 27C36.9105 54.1542 4.57339 103.995 4.00753 154.5C3.61829 189.242 18.263 224.298 60.4845 252.5L63.4845 282.5L71.9844 278.5L73.4844 253.5L75.9851 251Z" fill="#3F9222" stroke="black"/>
<path d="M48 170C54.6667 174.833 70.8 181.6 82 170" stroke="black"/>
<path d="M62 133.5C62 143.165 54.8366 139.5 46 139.5C37.1634 139.5 30 143.165 30 133.5C30 123.835 37.1634 116 46 116C54.8366 116 62 123.835 62 133.5Z" fill="#D9D9D9"/>
<path d="M101 133.5C101 143.165 93.8366 139.5 85 139.5C76.1634 139.5 69 143.165 69 133.5C69 123.835 76.1634 116 85 116C93.8366 116 101 123.835 101 133.5Z" fill="#D9D9D9"/>
<ellipse cx="45.5" cy="130" rx="3.5" ry="5" fill="black"/>
<ellipse cx="84.5" cy="130" rx="3.5" ry="5" fill="black"/>
<path fill-rule="evenodd" clip-rule="evenodd" d="M43 155C56.8066 155 68 143.807 68 130C68 116.193 56.8066 105 43 105C29.1934 105 18 116.193 18 130C18 143.807 29.1934 155 43 155ZM43 151C54.5977 151 64 141.822 64 130.5C64 119.178 54.5977 110 43 110C31.4023 110 22 119.178 22 130.5C22 141.822 31.4023 151 43 151Z" fill="black"/>
<path fill-rule="evenodd" clip-rule="evenodd" d="M89 155C102.807 155 114 143.807 114 130C114 116.193 102.807 105 89 105C75.1929 105 64 116.193 64 130C64 143.807 75.1929 155 89 155ZM89 151C100.598 151 110 141.822 110 130.5C110 119.178 100.598 110 89 110C77.402 110 68 119.178 68 130.5C68 141.822 77.402 151 89 151Z" fill="black"/>
<defs>
<filter id="filter0_f_168_46" x="10.0781" y="0.807617" width="165.258" height="286.26" filterUnits="userSpaceOnUse" color-interpolation-filters="sRGB">
<feFlood flood-opacity="0" result="BackgroundImageFix"/>
<feBlend mode="normal" in="SourceGraphic" in2="BackgroundImageFix" result="shape"/>
<feGaussianBlur stdDeviation="10" result="effect1_foregroundBlur_168_46"/>
</filter>
</defs>
</svg>
